<?xml version="1.0"?>
<svg xmlns="http://www.w3.org/2000/svg" xmlns:xlink="http://www.w3.org/1999/xlink" version="1.1" id="Capa_1" x="0px" y="0px" viewBox="0 0 512 512" style="enable-background:new 0 0 512 512;" xml:space="preserve" width="512px" height="512px"><g><g>
	<g>
		<path d="M165.033,91.521l-5.216-29.546c-7.178-40.723-46.23-68.027-86.881-60.82L43.391,6.369    c-8.159,1.436-13.608,9.214-12.158,17.373l26.045,147.716c1.448,8.231,9.371,13.649,17.373,12.158l29.531-5.2    C144.933,171.246,172.232,132.44,165.033,91.521z" data-original="#000000" class="active-path" data-old_color="#000000" fill="#FFFFFF"/>
	</g>
</g><g>
	<g>
		<path d="M150.999,346.999c-24.814,0-45,20.185-45,45c0,24.814,20.186,45,45,45s45-20.186,45-45    C195.999,367.185,175.813,346.999,150.999,346.999z" data-original="#000000" class="active-path" data-old_color="#000000" fill="#FFFFFF"/>
	</g>
</g><g>
	<g>
		<path d="M361,29.997c-66.167,0-120.001,53.833-120.001,120.001S294.833,269.999,361,269.999s120.001-53.833,120.001-120.001    S427.167,29.997,361,29.997z" data-original="#000000" class="active-path" data-old_color="#000000" fill="#FFFFFF"/>
	</g>
</g><g>
	<g>
		<path d="M346,361.999H219.642c4.039,9.203,6.357,19.323,6.357,30c0,41.353-33.647,75-75,75c-24.62,0-46.318-12.085-60-30.463V467    c0,24.814,20.186,45,45,45H406c24.814,0,45-20.186,45-45C451,409.108,403.891,361.999,346,361.999z" data-original="#000000" class="active-path" data-old_color="#000000" fill="#FFFFFF"/>
	</g>
</g><g>
	<g>
		<path d="M191.077,239.251c-3.957-22.423-14.963-41.752-30.134-56.563c-14.423,12.924-32.02,21.833-51.561,25.274l-45.593,8.926    l20.156,142.185c12.244-24.813,37.566-42.074,67.053-42.074c23.761,0,44.726,11.321,58.478,28.617L191.077,239.251z" data-original="#000000" class="active-path" data-old_color="#000000" fill="#FFFFFF"/>
	</g>
</g></g> </svg>
