<?xml version="1.0"?>
<svg xmlns="http://www.w3.org/2000/svg" height="512px" viewBox="0 0 512 512" width="512px" class=""><g><path d="m0 0v301h512v-301zm391 91h-72.566406l-84.140625 28.039062 15.980469 31.960938h140.726562v30h-120v35.726562l48.546875 24.273438h71.453125v30h-78.546875l-60-30h-11.453125v30h-30v-30h-90v30h-30v-30h-30v-90h20.726562l30-60h108.546876l.980468.777344 94.746094-30.777344h75zm60 180h-30v-30h30zm0-90h-30v-30h30zm0-90h-30v-30h30zm0 0" data-original="#000000" class="active-path" data-old_color="#000000" fill="#FFFFFF"/><path d="m201.726562 121h-71.453124l-15 30h101.453124zm0 0" data-original="#000000" class="active-path" data-old_color="#000000" fill="#FFFFFF"/><path d="m91 181h150v30h-150zm0 0" data-original="#000000" class="active-path" data-old_color="#000000" fill="#FFFFFF"/><path d="m512 421v-90h-512v90h181v61h-60v30h270v-30h-60v-61zm-211-30h-90v-30h90zm0 0" data-original="#000000" class="active-path" data-old_color="#000000" fill="#FFFFFF"/></g> </svg>
