<svg id="Layer_5" enable-background="new 0 0 64 64" height="512" viewBox="0 0 64 64" width="512" xmlns="http://www.w3.org/2000/svg"><g><g><path d="m12 45h18v6h-18z" fill="#f0bc5e"/></g><g><g><path d="m33 21h-22v-16h22z" fill="#f0bc5e"/></g></g><g><path d="m39 10h10v4h-10z" fill="#f0bc5e"/></g><g><path d="m62.91 57.45-3.344-16.721c-.432-2.161-2.345-3.729-4.55-3.729h-14.016v-4h11c2.757 0 5-2.243 5-5v-22c0-2.757-2.243-5-5-5h-40c-2.757 0-5 2.243-5 5v22c0 2.757 2.243 5 5 5h11v4h-14.016c-2.204 0-4.118 1.568-4.549 3.729l-3.345 16.72c-.06.298-.09.605-.09.911 0 2.559 2.082 4.64 4.64 4.64h52.72c2.558 0 4.64-2.081 4.64-4.64 0-.306-.03-.613-.09-.91zm-50.91-54.45h40c1.654 0 3 1.346 3 3v17h-46v-17c0-1.654 1.346-3 3-3zm-3 25v-3h46v3c0 1.654-1.346 3-3 3h-40c-1.654 0-3-1.346-3-3zm16 5h14v4h-14zm-18.604 8.122c.245-1.229 1.334-2.122 2.588-2.122h46.032c1.254 0 2.343.893 2.588 2.122l3.176 15.878h-57.56zm51.964 19.878h-52.72c-1.234 0-2.264-.855-2.552-2h57.825c-.288 1.145-1.319 2-2.553 2z"/><path d="m10 55h22c1.103 0 2-.897 2-2v-10c0-1.103-.897-2-2-2h-22c-1.103 0-2 .897-2 2v10c0 1.103.897 2 2 2zm0-12h22l.001 10h-22.001z"/><path d="m56 41h-20v6h20zm-8 2h2v2h-2zm-2 2h-4v-2h4zm-8-2h2v2h-2zm16 2h-2v-2h2z"/><path d="m52 52c0 1.654 1.346 3 3 3s3-1.346 3-3-1.346-3-3-3-3 1.346-3 3zm4 0c0 .552-.449 1-1 1s-1-.448-1-1 .449-1 1-1 1 .448 1 1z"/><path d="m47 49c-1.654 0-3 1.346-3 3s1.346 3 3 3 3-1.346 3-3-1.346-3-3-3zm0 4c-.551 0-1-.448-1-1s.449-1 1-1 1 .448 1 1-.449 1-1 1z"/><path d="m39 55c1.654 0 3-1.346 3-3s-1.346-3-3-3-3 1.346-3 3 1.346 3 3 3zm0-4c.551 0 1 .448 1 1s-.449 1-1 1-1-.448-1-1 .449-1 1-1z"/><path d="m16 45h2v2h-2z"/><path d="m20 45h2v2h-2z"/><path d="m12 45h2v2h-2z"/><path d="m24 45h2v2h-2z"/><path d="m28 45h2v2h-2z"/><path d="m28 49h2v2h-2z"/><path d="m20 49h2v2h-2z"/><path d="m24 49h2v2h-2z"/><path d="m12 49h2v2h-2z"/><path d="m16 49h2v2h-2z"/><path d="m15 27h2v2h-2z"/><path d="m11 27h2v2h-2z"/><path d="m19 27h2v2h-2z"/><path d="m53 5h-18v16h18zm-2 14h-14v-12h14z"/><path d="m29 11h-2v5h-2v-3h-2v3h-2v-5h-2v5h-2v-7h-2v9h14z"/><path d="m39 9h10v2h-10z"/><path d="m39 13h10v2h-10z"/></g></g></svg>