<?xml version="1.0"?>
<svg xmlns="http://www.w3.org/2000/svg" id="Capa_1" enable-background="new 0 0 512 512" height="512px" viewBox="0 0 512 512" width="512px"><g><g><path d="m91 422c-24.814 0-45 20.186-45 45s20.186 45 45 45h300c8.291 0 15-6.709 15-15v-60c0-8.291-6.709-15-15-15z" data-original="#000000" class="active-path" data-old_color="#000000" fill="#FFFFFF"/><path d="m436 151h30v60h-30z" data-original="#000000" class="active-path" data-old_color="#000000" fill="#FFFFFF"/><path d="m466 45c0-8.401-6.599-15-15-15h-15v91h30z" data-original="#000000" class="active-path" data-old_color="#000000" fill="#FFFFFF"/><path d="m436 241h30v60h-30z" data-original="#000000" class="active-path" data-old_color="#000000" fill="#FFFFFF"/><path d="m161.327 238.51 63.647 63.633c24.741 24.741 65.918 28.477 94.409 9.551l-41.382-41.367-10.605 10.605c-5.859 5.859-15.352 5.859-21.211 0l-63.633-63.633c-5.859-5.859-5.859-15.352 0-21.211l10.605-10.62-41.367-41.353c-19.262 29.107-16.068 68.775 9.537 94.395z" data-original="#000000" class="active-path" data-old_color="#000000" fill="#FFFFFF"/><path d="m46 75v332.383c12.574-9.518 28.052-15.383 45-15.383h300c5.284 0 10.285 1.082 15 2.763v-379.763c0-8.291-6.709-15-15-15h-270c-41.353 0-75 33.647-75 75zm115.327 36.229 63.647 63.633c5.859 5.859 5.859 15.352 0 21.211l-10.605 10.62 42.422 42.422 10.605-10.605c5.859-5.859 15.352-5.859 21.211 0l63.647 63.633c5.86 5.86 5.856 15.355 0 21.211-19.834 19.834-46.201 30.762-74.253 30.762s-54.419-10.928-74.238-30.762l-63.647-63.633c-40.942-40.942-40.942-107.549 0-148.491 5.86-5.86 15.352-5.86 21.211-.001z" data-original="#000000" class="active-path" data-old_color="#000000" fill="#FFFFFF"/><path d="m436 422h15c8.401 0 15-6.601 15-15v-76h-30z" data-original="#000000" class="active-path" data-old_color="#000000" fill="#FFFFFF"/></g></g> </svg>
