<svg xmlns="http://www.w3.org/2000/svg" xmlns:xlink="http://www.w3.org/1999/xlink" version="1.0" x="0px" y="0px" viewBox="0 0 75 90" enable-background="new 0 0 75 90" xml:space="preserve">
  <path d="M90.8723602,42.7104759c-5.4770126-2.987545-11.7394638-4.0153236-15.2643661-4.3687706V37.017952  c0-5.1819916-4.2164688-9.3984642-9.4003754-9.3984642H29.1808147c-5.1839066,0-9.4003792,4.2164726-9.4003792,9.3984642v1.7327576  H6.8609009v18.2346649h12.9195347v1.7327576c0,5.1819916,4.2164726,9.3984604,9.4003792,9.3984604h37.0268021  c5.1839066,0,9.4003754-4.2164688,9.4003754-9.3984604v-1.5680046c2.1417618,0.2413788,5.2088089,0.8294983,7.998085,2.2595749  l2.7681961,1.4185829l6.6896515-16.9233627L90.8723602,42.7104759z M83.3378754,53.1577911  c-5.3333282-1.9243279-10.377388-1.8295021-10.6245117-1.815136l-2.7490463,0.0708847v7.3045921  c0,2.0699234-1.6858215,3.7547874-3.7566986,3.7547874H29.1808147c-2.0708809,0-3.7567043-1.684864-3.7567043-3.7547874v-7.3764343  H12.5045767v-6.9473152h12.9195337V37.017952c0-2.0708809,1.6858234-3.7547874,3.7567043-3.7547874h37.0268021  c2.0708771,0,3.7566986,1.6839066,3.7566986,3.7547874l0.0038376,6.7356262l2.773941,0.0478935  c0.0766296,0.0009575,6.9310303,0.1513405,13.1915665,2.7892723L83.3378754,53.1577911z" fill="#FFFFFF" />
  <path d="M42.6985283,43.579731c1.7385063,0,3.1479874-1.4093628,3.1479874-3.1478691  c0-1.7383842-1.409481-3.147747-3.1479874-3.147747s-3.147747,1.4093628-3.147747,3.147747  C39.5507812,42.1703682,40.960022,43.579731,42.6985283,43.579731z" fill="#FFFFFF"/>
  <path d="M32.707634,43.579731c1.7385025,0,3.1479874-1.4093628,3.1479874-3.1478691  c0-1.7383842-1.4094849-3.147747-3.1479874-3.147747c-1.7385063,0-3.1477489,1.4093628-3.1477489,3.147747  C29.559885,42.1703682,30.9691277,43.579731,32.707634,43.579731z" fill="#FFFFFF"/>
  <path d="M62.6803207,37.2841148c-1.7385063,0-3.147747,1.4093628-3.147747,3.147747  c0,1.7385063,1.4092407,3.1478691,3.147747,3.1478691c1.7385025,0,3.1479874-1.4093628,3.1479874-3.1478691  C65.8283081,38.6934776,64.4188232,37.2841148,62.6803207,37.2841148z" fill="#FFFFFF"/>
  <path d="M52.6894226,43.579731c1.7385063,0,3.1479874-1.4093628,3.1479874-3.1478691  c0-1.7383842-1.409481-3.147747-3.1479874-3.147747c-1.7385025,0-3.147747,1.4093628-3.147747,3.147747  C49.5416756,42.1703682,50.9509201,43.579731,52.6894226,43.579731z" fill="#FFFFFF"/>
  <path d="M40.8508301,48.3357124c0-1.7385025-1.4092445-3.1478653-3.1477509-3.1478653  c-1.738266,0-3.147747,1.4093628-3.147747,3.1478653c0,1.7383881,1.409481,3.1477509,3.147747,3.1477509  C39.4415855,51.4834633,40.8508301,50.0741005,40.8508301,48.3357124z" fill="#FFFFFF"/>
  <path d="M60.8326187,48.3357124c0-1.7385025-1.4092407-3.1478653-3.147747-3.1478653  c-1.7385025,0-3.147747,1.4093628-3.147747,3.1478653c0,1.7383881,1.4092445,3.1477509,3.147747,3.1477509  C59.423378,51.4834633,60.8326187,50.0741005,60.8326187,48.3357124z" fill="#FFFFFF"/>
  <path d="M50.8417244,48.3357124c0-1.7385025-1.4092445-3.1478653-3.147747-3.1478653  c-1.738266,0-3.147747,1.4093628-3.147747,3.1478653c0,1.7383881,1.409481,3.1477509,3.147747,3.1477509  C49.4324799,51.4834633,50.8417244,50.0741005,50.8417244,48.3357124z" fill="#FFFFFF"/>
  <path d="M42.6985283,53.0915794c-1.7385063,0-3.147747,1.4093628-3.147747,3.1478653  c0,1.7385063,1.4092407,3.147747,3.147747,3.147747s3.1479874-1.4092407,3.1479874-3.147747  C45.8465157,54.5009422,44.4370346,53.0915794,42.6985283,53.0915794z" fill="#FFFFFF"/>
  <path d="M32.707634,53.0915794c-1.7385063,0-3.1477489,1.4093628-3.1477489,3.1478653  c0,1.7385063,1.4092426,3.147747,3.1477489,3.147747c1.7385025,0,3.1479874-1.4092407,3.1479874-3.147747  C35.8556213,54.5009422,34.4461365,53.0915794,32.707634,53.0915794z" fill="#FFFFFF"/>
  <path d="M62.6803207,53.0915794c-1.7385063,0-3.147747,1.4093628-3.147747,3.1478653  c0,1.7385063,1.4092407,3.147747,3.147747,3.147747c1.7385025,0,3.1479874-1.4092407,3.1479874-3.147747  C65.8283081,54.5009422,64.4188232,53.0915794,62.6803207,53.0915794z" fill="#FFFFFF"/>
  <path d="M52.6894226,53.0915794c-1.7385025,0-3.147747,1.4093628-3.147747,3.1478653  c0,1.7385063,1.4092445,3.147747,3.147747,3.147747c1.7385063,0,3.1479874-1.4092407,3.1479874-3.147747  C55.83741,54.5009422,54.4279289,53.0915794,52.6894226,53.0915794z" fill="#FFFFFF"/>
</svg>