<?xml version="1.0"?>
<svg xmlns="http://www.w3.org/2000/svg" height="512px" viewBox="0 0 64 64" width="512px"><g><g id="Pipe-Tree_Way-Water-Gas-Oil" data-name="Pipe-Tree Way-Water-Gas-Oil"><path d="m26 11h12v10h-12z" data-original="#000000" class="active-path" data-old_color="#000000" fill="#FFFFFF"/><rect height="6" rx="1" width="18" x="23" y="23" data-original="#000000" class="active-path" data-old_color="#000000" fill="#FFFFFF"/><path d="m60 49v-12h-6v12zm-4-10h2v2h-2z" data-original="#000000" class="active-path" data-old_color="#000000" fill="#FFFFFF"/><rect height="18" rx="1" width="6" x="46" y="34" data-original="#000000" class="active-path" data-old_color="#000000" fill="#FFFFFF"/><rect height="18" rx="1" width="6" x="12" y="34" data-original="#000000" class="active-path" data-old_color="#000000" fill="#FFFFFF"/><path d="m10 49v-12h-6v12zm-4-10h2v2h-2z" data-original="#000000" class="active-path" data-old_color="#000000" fill="#FFFFFF"/><path d="m20 37v12h24v-12h-5a1 1 0 0 1 -1-1v-5h-12v5a1 1 0 0 1 -1 1zm8 8h4v2h-4zm-2 0v2h-2v-2z" data-original="#000000" class="active-path" data-old_color="#000000" fill="#FFFFFF"/></g></g> </svg>
