<svg height="512" viewBox="0 0 512 512" width="512" xmlns="http://www.w3.org/2000/svg" xmlns:xlink="http://www.w3.org/1999/xlink"><linearGradient id="New_Gradient_Swatch_15" gradientUnits="userSpaceOnUse" x1="80" x2="456" y1="216" y2="216"><stop offset=".015" stop-color="#cacad5"/><stop offset="1" stop-color="#dcdce3"/></linearGradient><linearGradient id="New_Gradient_Swatch_14" gradientUnits="userSpaceOnUse" x1="456" x2="496" y1="216" y2="216"><stop offset=".015" stop-color="#a6a6b9"/><stop offset="1" stop-color="#cacad5"/></linearGradient><linearGradient id="New_Gradient_Swatch_22" gradientUnits="userSpaceOnUse" x1="16" x2="456" y1="188" y2="188"><stop offset=".011" stop-color="#dcdce3"/><stop offset="1" stop-color="#ededf1"/></linearGradient><linearGradient id="New_Gradient_Swatch_12" gradientUnits="userSpaceOnUse" x1="16" x2="456" y1="96" y2="96"><stop offset=".011" stop-color="#80d1cb"/><stop offset="1" stop-color="#bfe8e5"/></linearGradient><linearGradient id="New_Gradient_Swatch_8" gradientUnits="userSpaceOnUse" x1="373.088" x2="474.912" y1="426.912" y2="325.088"><stop offset=".011" stop-color="#fad46a"/><stop offset="1" stop-color="#fce6aa"/></linearGradient><g id="_06-schedule" data-name="06-schedule"><g id="linear_color" data-name="linear color"><path d="m80 56h376v320h-376z" fill="url(#New_Gradient_Swatch_15)"/><path d="m456 56h40v320h-40z" fill="url(#New_Gradient_Swatch_14)"/><path d="m392 320h-376l64-264h376z" fill="url(#New_Gradient_Swatch_22)"/><path d="m456 56h-376l-19.394 80h376z" fill="url(#New_Gradient_Swatch_12)"/><circle cx="424" cy="376" fill="url(#New_Gradient_Swatch_8)" r="72"/><path d="m496 44h-53.413a51.988 51.988 0 0 0 -101.174 0h-18.826a51.988 51.988 0 0 0 -101.174 0h-18.826a51.988 51.988 0 0 0 -101.174 0h-21.413a12.087 12.087 0 0 0 -11.662 9.173l-64 264a12 12 0 0 0 11.662 14.827h52v44a12 12 0 0 0 12 12h260.871a83.995 83.995 0 0 0 167.129-12v-320a12 12 0 0 0 -12-12zm-104-16a28.034 28.034 0 0 1 25.293 16h-50.586a28.034 28.034 0 0 1 25.293-16zm-120 0a28.034 28.034 0 0 1 25.293 16h-50.586a28.034 28.034 0 0 1 25.293-16zm-120 0a28.034 28.034 0 0 1 25.293 16h-50.586a28.034 28.034 0 0 1 25.293-16zm-50.587 40a52.082 52.082 0 0 0 50.587 40 12 12 0 0 0 0-24 28.034 28.034 0 0 1 -25.293-16h94.706a52.082 52.082 0 0 0 50.587 40 12 12 0 0 0 0-24 28.034 28.034 0 0 1 -25.293-16h94.706a52.082 52.082 0 0 0 50.587 40 12 12 0 0 0 0-24 28.034 28.034 0 0 1 -25.293-16h74.036l-13.576 56h-351.304l13.575-56zm-31.368 80h351.3l-37.365 154.142a83.914 83.914 0 0 0 -9.28 5.858h-343.443zm21.955 184h260.418a83.458 83.458 0 0 0 -11.565 32h-248.853zm332 104a60.068 60.068 0 0 1 -60-60c-.662-32.229 27.736-60.645 60-60a60 60 0 0 1 0 120zm44-131.516v-88.484a12 12 0 0 0 -24 0v78.425a83.855 83.855 0 0 0 -20-2.425 84.822 84.822 0 0 0 -13.113 1.015l54.551-225.015h18.562v249.292a84.6 84.6 0 0 0 -16-12.808z"/><path d="m260 192h32a12 12 0 0 0 0-24h-32a12 12 0 0 0 0 24z"/><path d="m180 192h32a12 12 0 0 0 0-24h-32a12 12 0 0 0 0 24z"/><path d="m100 192h32a12 12 0 0 0 0-24h-32a12 12 0 0 0 0 24z"/><path d="m340 192h32a12 12 0 0 0 0-24h-32a12 12 0 0 0 0 24z"/><path d="m244 240h32a12 12 0 0 0 0-24h-32a12 12 0 0 0 0 24z"/><path d="m164 240h32a12 12 0 0 0 0-24h-32a12 12 0 0 0 0 24z"/><path d="m84 240h32a12 12 0 0 0 0-24h-32a12 12 0 0 0 0 24z"/><path d="m324 240h32a12 12 0 0 0 0-24h-32a12 12 0 0 0 0 24z"/><path d="m236 288h32a12 12 0 0 0 0-24h-32a12 12 0 0 0 0 24z"/><path d="m156 288h32a12 12 0 0 0 0-24h-32a12 12 0 0 0 0 24z"/><path d="m120 276a12 12 0 0 0 -12-12h-32a12 12 0 0 0 0 24h32a12 12 0 0 0 12-12z"/><path d="m448 364h-12v-12a12 12 0 0 0 -24 0v12h-12a12 12 0 0 0 0 24h12v12a12 12 0 0 0 24 0v-12h12a12 12 0 0 0 0-24z"/></g></g></svg>