<?xml version="1.0" encoding="iso-8859-1"?>
<!-- Generator: Adobe Illustrator 19.0.0, SVG Export Plug-In . SVG Version: 6.00 Build 0)  -->
<svg version="1.1" id="Capa_1" xmlns="http://www.w3.org/2000/svg" xmlns:xlink="http://www.w3.org/1999/xlink" x="0px" y="0px"
	 viewBox="0 0 469.14 469.14" style="enable-background:new 0 0 469.14 469.14;" xml:space="preserve">
<g>
	<g>
		<path style="fill:#00EFD1;" d="M303.095,285.24v0.95c12.077,0.137,21.833,9.893,21.97,21.97c-0.089,5.696-2.206,11.174-5.97,15.45
			c-3.46,4-7.88,6.51-11.7,6.51h-132.25c-32.118-0.128-58.122-26.132-58.25-58.25v-92.15c0.128-32.118,26.132-58.122,58.25-58.25
			h60.41v30.56h94.28c12.071,0.136,21.824,9.889,21.96,21.96c-0.132,12.075-9.885,21.833-21.96,21.97h-9.07v0.47
			c12.073,0.141,21.824,9.897,21.96,21.97c-0.147,12.067-9.893,21.813-21.96,21.96h-8.6v0.95c12.077,0.137,21.833,9.893,21.97,21.97
			c-0.089,5.696-2.206,11.174-5.97,15.45c-3.46,4-7.88,6.51-11.7,6.51H303.095z"/>
		<g>
			<path style="fill:#00ACEA;" d="M297.685,25.14c21.13,21.13,21.13,56.77,0,77.9c-4.524,4.32-9.748,7.84-15.45,10.41v38.58h-46.68
				v-38.58c-5.768-2.456-11.015-5.989-15.46-10.41c-21.13-21.13-21.13-56.77,0-77.9c5.353-5.335,11.817-9.426,18.93-11.98l7.88-3.16
				v38.31c0,6.619,5.366,11.985,11.985,11.985c6.619,0,11.985-5.366,11.985-11.985V10l7.89,3.16
				C286.645,16.31,292.645,20.1,297.685,25.14z"/>
			<path style="fill:#00ACEA;" d="M297.685,366.1c21.13,21.13,21.13,56.77,0,77.9c-5.348,5.338-11.808,9.428-18.92,11.98l-7.89,3.16
				v-38.31c0-6.619-5.366-11.985-11.985-11.985c-6.619,0-11.985,5.366-11.985,11.985l0,0v38.31l-7.88-3.16
				c-7.89-3.15-13.88-6.94-18.93-11.98c-21.13-21.13-21.13-56.77,0-77.9c4.529-4.317,9.756-7.837,15.46-10.41v-25.57h46.68v25.57
				C288.001,358.144,293.245,361.678,297.685,366.1z"/>
		</g>
	</g>
	<path style="fill:#083863;" d="M352.725,218.4c-0.021-6.312-1.94-12.472-5.51-17.678c1.858-1.225,3.587-2.636,5.16-4.21
		c6.024-6.041,9.411-14.221,9.42-22.752c0-17.324-14.636-32.19-31.96-32.19h-37.49v-22.022c4.352-2.663,8.438-5.738,12.2-9.184
		c0.088-0.083,0.149-0.167,0.235-0.253c24.945-24.946,24.931-67.1-0.014-92.042c-6.01-6.01-13.1-10.52-22.28-14.192l-7.894-3.16
		c-3.002-1.235-6.427-0.858-9.089,1c-2.688,1.888-4.25,4.999-4.158,8.283v38.31c0,1.413-0.589,1.99-2,1.99s-2-0.577-2-1.99V10
		c-0.17-5.686-4.918-10.157-10.604-9.987c-1.181,0.035-2.348,0.274-3.448,0.705l-7.869,3.133
		c-8.406,3.051-16.042,7.904-22.373,14.219c-24.945,24.946-24.959,67.146-0.014,92.093c0.464,0.463,0.917,0.408,1.389,1.408h-39.281
		c-37.477,0.032-67.833,30.44-67.801,67.917c0,0.077,0,0.154,0.001,0.232v92.15c0,37.633,30.167,68.7,67.8,68.7h50.2v9.012
		c-4.343,2.657-8.414,5.734-12.156,9.186c-0.092,0.085-0.129,0.172-0.218,0.261c-24.945,24.946-24.919,67.1,0.033,92.049
		c6.029,6.016,13.123,10.525,22.286,14.184l7.886,3.16c3.157,1.234,6.716,0.861,9.548-1c2.806-1.835,4.533-4.93,4.621-8.282v-38.31
		c0-1.413,0.591-1.99,2-1.99s2,0.577,2,1.99v38.31c-0.091,3.284,1.472,6.395,4.161,8.282c2.683,1.859,6.124,2.235,9.146,1l7.8-3.134
		c8.391-3.049,16.009-7.902,22.319-14.218c24.945-24.946,24.993-67.1,0.055-92.035c-3.645-3.792-7.855-6.997-12.481-9.5v-8.965
		h15.05c6.762,0,13.784-3.858,19.263-10.193c5.355-6.127,8.337-13.97,8.407-22.107c-0.021-6.231-1.884-12.316-5.355-17.49
		c2.225-1.571,4.247-3.413,6.019-5.482c5.352-6.089,8.335-13.9,8.406-22.006c-0.027-6.54-2.089-12.91-5.9-18.225
		c1.815-1.21,3.506-2.599,5.046-4.144C349.31,234.977,352.71,226.868,352.725,218.4z M227.38,32.218
		c2.882-2.949,6.253-5.376,9.965-7.172V48.31c0,12.15,9.85,22,22,22c12.15,0,22-9.85,22-22v-23.2c3,2.021,6.714,4.31,9.5,7.1
		c17.239,17.238,17.163,46.335,0.01,63.631c-3.69,3.528-7.956,6.399-12.613,8.489c-3.59,1.614-5.899,5.183-5.9,9.119v28.121h-26.997
		v-28.12c0.044-3.918-2.226-7.493-5.791-9.119c-4.612-1.963-8.8-4.803-12.33-8.362C209.945,78.689,210.106,49.491,227.38,32.218z
		 M278.186,364.809c4.652,1.959,8.883,4.798,12.459,8.361c17.28,17.28,17.5,46.478,0.221,63.758
		c-2.914,2.715-6.104,5.118-9.517,7.17V420.83c0-12.15-9.85-22-22-22c-12.15,0-22,9.85-22,22v23.2
		c-3.683-1.81-7.047-4.208-9.958-7.1c-17.238-17.237-17.392-46.331-0.241-63.627c3.638-3.523,7.854-6.396,12.464-8.493
		c3.549-1.635,5.797-5.213,5.731-9.12v-15.12h27v15.12C272.322,359.616,274.61,363.188,278.186,364.809z M311.532,317.293
		c-2.041,2.36-3.846,3.277-4.137,3.277h-132.25c-26.606,0-47.8-22.1-47.8-48.7v-92.15c-0.173-26.419,21.102-47.976,47.521-48.149
		c0.093-0.001,0.186-0.001,0.279-0.001h50.2v10h-26.47c-5.523,0-10,4.477-10,10s4.477,10,10,10h130.96
		c6.371,0,11.96,5.819,11.96,12.19c-0.144,6.52-5.439,11.748-11.96,11.81h-12.41c-5.523,0-10,4.477-10,10s4.477,10,10,10h0.312
		c0.955,1,1.971,0.665,3.028,0.665c6.557,0.213,11.806,5.51,11.96,12.068c-0.124,6.605-5.36,11.976-11.96,12.267h-12.42
		c-5.474-0.058-9.959,4.333-10.017,9.808c-0.057,5.376,4.182,9.817,9.555,10.011c1.339,0.631,2.802,0.955,4.282,0.947
		c6.539,0.159,11.804,5.418,11.97,11.957c-0.087,3.341-1.336,6.548-3.533,9.067c-2.041,2.36-3.846,3.21-4.137,3.21h-16.71
		c-5.451-0.053-9.913,4.324-9.966,9.775c-0.05,5.138,3.85,9.454,8.966,9.925c1.355,0.644,2.838,0.972,4.338,0.959
		c6.558,0.208,11.812,5.502,11.97,12.062C314.976,311.613,313.726,314.798,311.532,317.293L311.532,317.293z"/>
</g>
<g>
</g>
<g>
</g>
<g>
</g>
<g>
</g>
<g>
</g>
<g>
</g>
<g>
</g>
<g>
</g>
<g>
</g>
<g>
</g>
<g>
</g>
<g>
</g>
<g>
</g>
<g>
</g>
<g>
</g>
</svg>
